STARTFONT 2.1
FONT jis.jis8000.16
SIZE 16 72 72
FONTBOUNDINGBOX 16 16 0 -2
STARTPROPERTIES 4
FONT_DESCENT 2
FONT_ASCENT 14
DEFAULT_CHAR 0
COPYRIGHT "Copyright (c) 1992 AT&T - All rights reserved."
ENDPROPERTIES
CHARS 174
STARTCHAR ch-0
ENCODING 0
SWIDTH 1000 0
DWIDTH 16 0
BBX 16 16 0 -2
BITMAP
2000
23de
a842
abde
a842
23de
2088
f910
53ff
5510
51fe
5110
55fe
5910
d110
81ff
ENDCHAR
STARTCHAR ch-1
ENCODING 1
SWIDTH 1000 0
DWIDTH 16 0
BBX 16 16 0 -2
BITMAP
0104
0104
3ffc
0108
0118
0130
ffff
00c0
0180
070c
1c78
f7c0
0400
0401
0603
03fe
ENDCHAR
STARTCHAR ch-3
ENCODING 3
SWIDTH 1000 0
DWIDTH 16 0
BBX 16 16 0 -2
BITMAP
0102
0106
3ffc
0118
0120
ffff
00c0
0300
0ffc
3800
e800
0ffc
0004
0004
000c
0078
ENDCHAR
STARTCHAR ch-4
ENCODING 4
SWIDTH 1000 0
DWIDTH 16 0
BBX 16 16 0 -2
BITMAP
040c
3ff0
0440
ffff
0200
0ff8
f202
01fe
0000
1fe0
0200
7ff8
0200
fffd
0203
01fe
ENDCHAR
STARTCHAR ch-5
ENCODING 5
SWIDTH 1000 0
DWIDTH 16 0
BBX 16 16 0 -2
BITMAP
0208
0208
3ff0
0210
0220
0240
ffff
0100
0200
0ff8
3808
c808
0ff8
0808
0808
0ff8
ENDCHAR
STARTCHAR ch-6
ENCODING 6
SWIDTH 1000 0
DWIDTH 16 0
BBX 16 16 0 -2
BITMAP
0204
3fec
0218
0260
ffff
0300
1c38
e7e2
0406
03fc
0000
1ffc
1004
1ffc
1004
1ffc
ENDCHAR
STARTCHAR ch-11
ENCODING 11
SWIDTH 1000 0
DWIDTH 16 0
BBX 16 16 0 -2
BITMAP
040c
3ff0
0440
ffff
0200
1ff8
e202
01fe
0000
7ffe
0810
1fe8
0100
3ffc
0100
ffff
ENDCHAR
STARTCHAR ch-12
ENCODING 12
SWIDTH 1000 0
DWIDTH 16 0
BBX 16 16 0 -2
BITMAP
0000
ffff
0100
0200
7ffe
4442
4442
4442
4442
4442
4442
4442
4442
4442
4442
444e
ENDCHAR
STARTCHAR ch-16
ENCODING 16
SWIDTH 1000 0
DWIDTH 16 0
BBX 16 16 0 -2
BITMAP
0004
ff84
0804
1004
7f7f
5504
5504
5524
5534
5514
5504
5504
5504
5504
5504
431c
ENDCHAR
STARTCHAR ch-18
ENCODING 18
SWIDTH 1000 0
DWIDTH 16 0
BBX 16 16 0 -2
BITMAP
0100
0100
7ffe
0100
0100
3ffc
0100
0100
ffff
0540
0560
0d30
1918
310c
e107
0100
ENDCHAR
STARTCHAR ch-21
ENCODING 21
SWIDTH 1000 0
DWIDTH 16 0
BBX 16 16 0 -2
BITMAP
1024
1024
fe24
10ff
1024
fe24
1024
1024
fe24
10ff
3824
3424
5224
9064
1044
10c4
ENDCHAR
STARTCHAR ch-23
ENCODING 23
SWIDTH 1000 0
DWIDTH 16 0
BBX 16 16 0 -2
BITMAP
1006
101c
fef0
1020
1020
7cfe
1020
1020
fe20
11ff
3820
3420
5220
9021
1033
101e
ENDCHAR
STARTCHAR ch-24
ENCODING 24
SWIDTH 1000 0
DWIDTH 16 0
BBX 16 16 0 -2
BITMAP
1000
10fe
fe00
1000
1000
7c00
11ff
1020
fe20
1020
3864
3444
5446
9042
105e
10f3
ENDCHAR
STARTCHAR ch-25
ENCODING 25
SWIDTH 1000 0
DWIDTH 16 0
BBX 16 16 0 -2
BITMAP
1000
10fe
fe92
1092
1092
7c92
1092
10fe
fe80
1080
3880
3480
5480
9081
10c3
107e
ENDCHAR
STARTCHAR ch-28
ENCODING 28
SWIDTH 1000 0
DWIDTH 16 0
BBX 16 16 0 -2
BITMAP
1000
10fe
fe82
1082
1082
7c82
10fe
1080
fe80
10fe
3882
3482
5482
9082
1082
10fe
ENDCHAR
STARTCHAR ch-33
ENCODING 33
SWIDTH 1000 0
DWIDTH 16 0
BBX 16 16 0 -2
BITMAP
2008
23c8
fa48
2248
227f
fbc9
2249
2249
fa49
23c9
7249
6a49
aa59
a3d3
2632
2066
ENDCHAR
STARTCHAR ch-40
ENCODING 40
SWIDTH 1000 0
DWIDTH 16 0
BBX 16 16 0 -2
BITMAP
1000
11ff
ff00
117e
1100
7dfe
1151
114a
ff74
11c3
3904
35ff
5144
9164
1224
100c
ENDCHAR
STARTCHAR ch-51
ENCODING 51
SWIDTH 1000 0
DWIDTH 16 0
BBX 16 16 0 -2
BITMAP
0000
ffff
0810
0810
0ff0
0810
0810
0810
0ff0
0810
0810
081f
0ff0
f810
0010
0010
ENDCHAR
STARTCHAR ch-54
ENCODING 54
SWIDTH 1000 0
DWIDTH 16 0
BBX 16 16 0 -2
BITMAP
0000
ffbf
2221
2223
3e22
2226
2224
2222
3e21
2221
2221
2221
3e27
e220
0220
0220
ENDCHAR
STARTCHAR ch-59
ENCODING 59
SWIDTH 1000 0
DWIDTH 16 0
BBX 16 16 0 -2
BITMAP
0010
fc10
4810
4810
7890
489e
4890
4890
7890
4890
4890
4890
7890
c890
0bff
0800
ENDCHAR
STARTCHAR ch-61
ENCODING 61
SWIDTH 1000 0
DWIDTH 16 0
BBX 16 16 0 -2
BITMAP
0010
ff10
2410
24ff
2491
3c91
2410
2410
2438
3c28
2428
2428
2468
3c49
e4c9
0587
ENDCHAR
STARTCHAR ch-63
ENCODING 63
SWIDTH 1000 0
DWIDTH 16 0
BBX 16 16 0 -2
BITMAP
0010
fe10
4411
4491
7c93
4492
4592
4510
7c38
4428
4428
4428
7c6c
c444
04c6
0583
ENDCHAR
STARTCHAR ch-70
ENCODING 70
SWIDTH 1000 0
DWIDTH 16 0
BBX 16 16 0 -2
BITMAP
0020
fe70
44d8
458c
7f07
44f8
4400
4400
7dfe
4422
4422
4422
7c22
c42e
0420
0420
ENDCHAR
STARTCHAR ch-74
ENCODING 74
SWIDTH 1000 0
DWIDTH 16 0
BBX 16 16 0 -2
BITMAP
0030
fc60
49cf
4929
7929
4929
4929
4929
7929
4929
4929
49e9
7b2b
c868
08c8
0988
ENDCHAR
STARTCHAR ch-82
ENCODING 82
SWIDTH 1000 0
DWIDTH 16 0
BBX 16 16 0 -2
BITMAP
0006
fe1c
45f0
4410
7c10
4410
45ff
4410
7c10
4410
44fe
4482
7c82
c482
0482
04fe
ENDCHAR
STARTCHAR ch-86
ENCODING 86
SWIDTH 1000 0
DWIDTH 16 0
BBX 16 16 0 -2
BITMAP
ff80
227e
3e42
2242
2242
3e42
2242
227e
fe00
0200
0000
3ffc
0100
1ff8
0100
ffff
ENDCHAR
STARTCHAR ch-88
ENCODING 88
SWIDTH 1000 0
DWIDTH 16 0
BBX 16 16 0 -2
BITMAP
0020
fc20
49fe
4922
79fe
4922
4922
49fe
7800
4bff
4840
487c
7804
c804
080c
0838
ENDCHAR
STARTCHAR ch-90
ENCODING 90
SWIDTH 1000 0
DWIDTH 16 0
BBX 16 16 0 -2
BITMAP
0000
ff7e
2222
3e36
221c
3e08
231c
3e76
e203
00f0
1780
3106
e19c
0960
3938
e10f
ENDCHAR
STARTCHAR ch-94
ENCODING 94
SWIDTH 1000 0
DWIDTH 16 0
BBX 16 16 0 -2
BITMAP
0000
7e7e
4242
7e7e
4242
7e7e
4002
5ffa
4422
47e2
4422
47e2
4422
47e2
5c22
402e
ENDCHAR
STARTCHAR ch-95
ENCODING 95
SWIDTH 1000 0
DWIDTH 16 0
BBX 16 16 0 -2
BITMAP
2000
7f7e
4842
ffc2
1442
3642
637e
0000
ffff
0810
0ff0
0810
0ff0
081f
fff0
0010
ENDCHAR
STARTCHAR ch-97
ENCODING 97
SWIDTH 1000 0
DWIDTH 16 0
BBX 16 16 0 -2
BITMAP
0044
fe44
44c6
45a3
7c20
4464
4444
447e
7dc3
4410
4418
4428
7ca2
c4a3
05a5
051c
ENDCHAR
STARTCHAR ch-98
ENCODING 98
SWIDTH 1000 0
DWIDTH 16 0
BBX 16 16 0 -2
BITMAP
0010
fe10
45ff
4501
7d01
44fe
4410
4410
7c90
449e
4490
4490
7c90
c5d0
0570
051f
ENDCHAR
STARTCHAR ch-104
ENCODING 104
SWIDTH 1000 0
DWIDTH 16 0
BBX 16 16 0 -2
BITMAP
0084
fd08
4a10
494a
7884
4908
4a52
4bde
7800
4888
4888
4fff
7888
c888
0988
0b08
ENDCHAR
STARTCHAR ch-111
ENCODING 111
SWIDTH 1000 0
DWIDTH 16 0
BBX 16 16 0 -2
BITMAP
0084
fd08
4a10
494a
7884
4908
4a52
4bde
7800
4a49
4a49
4a49
7bcf
c848
08c8
0b88
ENDCHAR
STARTCHAR ch-112
ENCODING 112
SWIDTH 1000 0
DWIDTH 16 0
BBX 16 16 0 -2
BITMAP
0010
fc20
49fe
4922
79ba
494a
49aa
4912
792a
4902
49fe
4810
795a
c94b
0b45
0a3c
ENDCHAR
STARTCHAR ch-114
ENCODING 114
SWIDTH 1000 0
DWIDTH 16 0
BBX 16 16 0 -2
BITMAP
083c
ffa4
0847
7f00
007e
7f22
491c
7f63
4000
ffff
0810
0ff0
0810
0fff
f810
0010
ENDCHAR
STARTCHAR ch-115
ENCODING 115
SWIDTH 1000 0
DWIDTH 16 0
BBX 16 16 0 -2
BITMAP
1208
2110
d7fe
2040
e27c
2740
2dff
2000
ffff
0810
0ff0
0810
0ff0
081f
fff0
0010
ENDCHAR
STARTCHAR ch-116
ENCODING 116
SWIDTH 1000 0
DWIDTH 16 0
BBX 16 16 0 -2
BITMAP
0020
fc20
4bff
4820
7820
4bff
4a49
4a49
7bff
4800
4810
4858
794a
c943
0b45
0a3c
ENDCHAR
STARTCHAR ch-118
ENCODING 118
SWIDTH 1000 0
DWIDTH 16 0
BBX 16 16 0 -2
BITMAP
3ffc
0420
07e0
0420
07e0
043c
3fe0
0020
ff7f
2222
3e3e
2222
3e3e
2222
fe7e
0202
ENDCHAR
STARTCHAR ch-119
ENCODING 119
SWIDTH 1000 0
DWIDTH 16 0
BBX 16 16 0 -2
BITMAP
0088
fc8a
4beb
4809
4a28
7948
4fff
4808
4bea
7a2a
4a2e
4be4
4a24
7a25
cbef
081a
ENDCHAR
STARTCHAR ch-121
ENCODING 121
SWIDTH 1000 0
DWIDTH 16 0
BBX 16 16 0 -2
BITMAP
0020
fc20
4bff
4a21
7a51
494a
4a79
4800
79fe
4952
49fe
4800
7bff
c820
0820
08e0
ENDCHAR
STARTCHAR ch-125
ENCODING 125
SWIDTH 1000 0
DWIDTH 16 0
BBX 16 16 0 -2
BITMAP
0020
fc20
4bff
7820
49fe
7952
4952
f9fe
0800
ebff
4810
4858
e94a
4943
6b45
ca3c
ENDCHAR
STARTCHAR ch-126
ENCODING 126
SWIDTH 1000 0
DWIDTH 16 0
BBX 16 16 0 -2
BITMAP
1020
ff3f
2420
ff3e
4202
7e3e
4220
7e3e
4220
4621
ffff
1008
1ff8
100f
fff8
0008
ENDCHAR
STARTCHAR ch-127
ENCODING 127
SWIDTH 1000 0
DWIDTH 16 0
BBX 16 16 0 -2
BITMAP
0100
0100
3ffc
0104
ffff
0104
3ffc
0100
0100
3ffc
0100
0100
ffff
0100
0100
0100
ENDCHAR
STARTCHAR ch-132
ENCODING 132
SWIDTH 1000 0
DWIDTH 16 0
BBX 16 16 0 -2
BITMAP
4010
4610
7cfe
4012
43ff
3e12
20fe
3e10
4810
88fe
7f10
0810
1dff
3610
6310
c010
ENDCHAR
STARTCHAR ch-133
ENCODING 133
SWIDTH 1000 0
DWIDTH 16 0
BBX 16 16 0 -2
BITMAP
0100
3ffc
0104
ffff
0104
3ffc
0100
2524
3d3c
2104
3ffc
2104
3d3c
6524
4524
c104
ENDCHAR
STARTCHAR ch-134
ENCODING 134
SWIDTH 1000 0
DWIDTH 16 0
BBX 16 16 0 -2
BITMAP
0010
3e10
20fe
3c12
21ff
2012
3cfe
2010
2010
fefe
2010
6410
47ff
7a10
c010
0010
ENDCHAR
STARTCHAR ch-135
ENCODING 135
SWIDTH 1000 0
DWIDTH 16 0
BBX 16 16 0 -2
BITMAP
ff20
003f
7e44
42a8
7e18
4127
9ff8
0108
ffff
0108
1ff8
0100
3ffc
0100
ffff
0100
ENDCHAR
STARTCHAR ch-137
ENCODING 137
SWIDTH 1000 0
DWIDTH 16 0
BBX 16 16 0 -2
BITMAP
0100
0100
7ffe
4102
4382
42c2
4662
4d32
4102
4382
42c2
4662
4c32
4002
4002
400e
ENDCHAR
STARTCHAR ch-139
ENCODING 139
SWIDTH 1000 0
DWIDTH 16 0
BBX 16 16 0 -2
BITMAP
0020
7c20
4420
4420
45fe
7c22
4422
4422
4422
7c22
4422
4462
4446
4444
c4c4
8d9c
ENDCHAR
STARTCHAR ch-140
ENCODING 140
SWIDTH 1000 0
DWIDTH 16 0
BBX 16 16 0 -2
BITMAP
0000
7cf8
4488
4488
4488
7c88
4488
4488
4488
7c88
4488
4488
4488
4489
c489
8d07
ENDCHAR
STARTCHAR ch-147
ENCODING 147
SWIDTH 1000 0
DWIDTH 16 0
BBX 16 16 0 -2
BITMAP
0100
0100
ffff
2000
2000
3ffc
0000
1ff8
1008
1ff8
1008
1ff8
1008
1008
1008
1038
ENDCHAR
STARTCHAR ch-150
ENCODING 150
SWIDTH 1000 0
DWIDTH 16 0
BBX 16 16 0 -2
BITMAP
2104
310c
1918
0910
0100
3ffc
2004
2004
3ffc
2004
2004
3ffc
2004
2004
2004
201c
ENDCHAR
STARTCHAR ch-152
ENCODING 152
SWIDTH 1000 0
DWIDTH 16 0
BBX 16 16 0 -2
BITMAP
0008
7c08
4408
4408
45ff
7c08
4408
44c8
4468
7c28
4408
4408
4408
4408
c408
8c38
ENDCHAR
STARTCHAR ch-154
ENCODING 154
SWIDTH 1000 0
DWIDTH 16 0
BBX 16 16 0 -2
BITMAP
0010
7c10
4410
4410
4410
7cfe
4410
4410
4410
7c10
4410
4410
4410
4410
c5ff
9c00
ENDCHAR
STARTCHAR ch-155
ENCODING 155
SWIDTH 1000 0
DWIDTH 16 0
BBX 16 16 0 -2
BITMAP
0000
7c00
44fe
4410
4410
7c10
4410
4410
4410
7c10
4410
4410
4410
4410
c5ff
9c00
ENDCHAR
STARTCHAR ch-157
ENCODING 157
SWIDTH 1000 0
DWIDTH 16 0
BBX 16 16 0 -2
BITMAP
0000
7cfe
4410
4410
4410
7c10
4410
45ff
4410
7c10
4410
4410
4410
4410
c410
9c10
ENDCHAR
STARTCHAR ch-161
ENCODING 161
SWIDTH 1000 0
DWIDTH 16 0
BBX 16 16 0 -2
BITMAP
0000
78f8
4888
4888
4988
7b0f
4800
49fc
4884
788c
48d8
4870
4820
4870
c8dc
9b87
ENDCHAR
STARTCHAR ch-162
ENCODING 162
SWIDTH 1000 0
DWIDTH 16 0
BBX 16 16 0 -2
BITMAP
0010
7c10
4410
45ff
4410
7c10
45fe
4482
44c6
7c6c
4438
4410
4438
446c
c4c6
8d83
ENDCHAR
STARTCHAR ch-165
ENCODING 165
SWIDTH 1000 0
DWIDTH 16 0
BBX 16 16 0 -2
BITMAP
0000
7cfe
4492
4492
4492
7c92
4492
44fe
4480
7c80
4480
4480
4480
4481
c4c3
8c7e
ENDCHAR
STARTCHAR ch-169
ENCODING 169
SWIDTH 1000 0
DWIDTH 16 0
BBX 16 16 0 -2
BITMAP
0000
ffff
0000
3ffc
2004
2004
3ffc
2000
2ffc
2804
2ffc
2804
6ffc
4804
c804
081c
ENDCHAR
STARTCHAR ch-170
ENCODING 170
SWIDTH 1000 0
DWIDTH 16 0
BBX 16 16 0 -2
BITMAP
0010
7c10
4410
45ff
4420
7c20
4420
443e
4422
7c22
4422
4462
4442
4446
c4c4
8d9c
ENDCHAR
STARTCHAR ch-172
ENCODING 172
SWIDTH 1000 0
DWIDTH 16 0
BBX 16 16 0 -2
BITMAP
0024
7826
4822
4820
4bff
7820
4820
4820
4870
7850
4850
4850
48d0
4891
c993
9b0e
ENDCHAR
STARTCHAR ch-173
ENCODING 173
SWIDTH 1000 0
DWIDTH 16 0
BBX 16 16 0 -2
BITMAP
0020
7820
4820
4bfe
4a22
7a22
4a72
4a52
4a52
7ada
4a8a
4a02
4a02
4a02
ca02
9a0e
ENDCHAR
STARTCHAR ch-175
ENCODING 175
SWIDTH 1000 0
DWIDTH 16 0
BBX 16 16 0 -2
BITMAP
0080
10fc
1080
1080
ffff
0000
1ff8
1008
1008
1ff8
1008
1008
1ff8
1008
1008
1038
ENDCHAR
STARTCHAR ch-177
ENCODING 177
SWIDTH 1000 0
DWIDTH 16 0
BBX 16 16 0 -2
BITMAP
0020
7c20
4420
45ff
4420
7c20
4460
4448
4448
7cd8
4490
4592
4732
4422
c43f
9ce1
ENDCHAR
STARTCHAR ch-178
ENCODING 178
SWIDTH 1000 0
DWIDTH 16 0
BBX 16 16 0 -2
BITMAP
0100
0100
ffff
0400
0808
1ffc
7006
0000
1ff8
1008
1ff8
1008
1ff8
1008
1008
1038
ENDCHAR
STARTCHAR ch-180
ENCODING 180
SWIDTH 1000 0
DWIDTH 16 0
BBX 16 16 0 -2
BITMAP
0008
1c30
03c0
3c38
0200
ffff
0400
0800
1ffc
2804
cffc
0804
0ffc
0804
0804
081c
ENDCHAR
STARTCHAR ch-186
ENCODING 186
SWIDTH 1000 0
DWIDTH 16 0
BBX 16 16 0 -2
BITMAP
0020
7820
4820
4bff
4820
7820
49fe
4922
4922
7922
4922
4922
4926
4820
c820
9820
ENDCHAR
STARTCHAR ch-195
ENCODING 195
SWIDTH 1000 0
DWIDTH 16 0
BBX 16 16 0 -2
BITMAP
7ffe
4102
4102
7ffe
4102
4102
7ffe
0000
3ffc
2004
3ffc
2004
3ffc
2004
2004
201c
ENDCHAR
STARTCHAR ch-196
ENCODING 196
SWIDTH 1000 0
DWIDTH 16 0
BBX 16 16 0 -2
BITMAP
0100
0100
7ffe
4102
7ffe
4102
7ffe
0000
1ff8
1008
1ff8
1008
1ff8
1008
1008
1038
ENDCHAR
STARTCHAR ch-198
ENCODING 198
SWIDTH 1000 0
DWIDTH 16 0
BBX 16 16 0 -2
BITMAP
0000
78fc
4884
4884
4884
7884
48fc
4884
4884
7884
4884
48fc
4800
4800
cbff
9800
ENDCHAR
STARTCHAR ch-204
ENCODING 204
SWIDTH 1000 0
DWIDTH 16 0
BBX 16 16 0 -2
BITMAP
0440
0446
fc7c
0440
0441
3c63
e43e
0000
1ff8
1008
1ff8
1008
1ff8
1008
1008
1038
ENDCHAR
STARTCHAR ch-206
ENCODING 206
SWIDTH 1000 0
DWIDTH 16 0
BBX 16 16 0 -2
BITMAP
0020
7c20
4460
4442
44c2
7c9f
45f1
4400
4400
7cfe
4482
4482
4482
4482
c482
8cfe
ENDCHAR
STARTCHAR ch-214
ENCODING 214
SWIDTH 1000 0
DWIDTH 16 0
BBX 16 16 0 -2
BITMAP
0020
7a22
4b26
4924
4820
79fe
4820
4820
4820
7bff
4820
4820
4820
4820
c820
9820
ENDCHAR
STARTCHAR ch-217
ENCODING 217
SWIDTH 1000 0
DWIDTH 16 0
BBX 16 16 0 -2
BITMAP
0040
7c40
4440
44ff
44a0
7da0
4720
443e
4420
7c20
4420
443e
4420
4420
c420
9c20
ENDCHAR
STARTCHAR ch-218
ENCODING 218
SWIDTH 1000 0
DWIDTH 16 0
BBX 16 16 0 -2
BITMAP
0000
79fe
4810
4810
4830
7820
4868
48ec
49a6
7b23
4820
4820
4820
4800
cbff
9800
ENDCHAR
STARTCHAR ch-219
ENCODING 219
SWIDTH 1000 0
DWIDTH 16 0
BBX 16 16 0 -2
BITMAP
0000
7bfe
4a22
4a22
4a22
7bfe
4a22
4a22
4a22
7a22
4bfe
4820
4820
4820
c820
9820
ENDCHAR
STARTCHAR ch-221
ENCODING 221
SWIDTH 1000 0
DWIDTH 16 0
BBX 16 16 0 -2
BITMAP
0006
781c
49f0
4910
4910
7910
49ff
4910
4910
7918
4908
49c8
4b0c
4805
cbe7
9802
ENDCHAR
STARTCHAR ch-222
ENCODING 222
SWIDTH 1000 0
DWIDTH 16 0
BBX 16 16 0 -2
BITMAP
0080
7c80
44fe
4482
4482
7df2
4512
4712
4412
7cf2
448e
4480
4480
4481
c4c3
8c7e
ENDCHAR
STARTCHAR ch-225
ENCODING 225
SWIDTH 1000 0
DWIDTH 16 0
BBX 16 16 0 -2
BITMAP
1000
107e
1042
fe42
1042
107e
1042
1042
7c42
447e
4442
4442
4442
44c2
7c82
018e
ENDCHAR
STARTCHAR ch-228
ENCODING 228
SWIDTH 1000 0
DWIDTH 16 0
BBX 16 16 0 -2
BITMAP
2104
2204
2c44
2684
2104
2224
2ff4
2014
27e4
2424
27e4
2424
27e4
6425
4425
c463
ENDCHAR
STARTCHAR ch-229
ENCODING 229
SWIDTH 1000 0
DWIDTH 16 0
BBX 16 16 0 -2
BITMAP
0000
ffff
0101
11f2
1100
3d00
67ff
c000
1ff8
1008
1ff8
1008
1ff8
1008
1008
1038
ENDCHAR
STARTCHAR ch-239
ENCODING 239
SWIDTH 1000 0
DWIDTH 16 0
BBX 16 16 0 -2
BITMAP
0020
7820
4bff
4848
4884
7b03
48fc
4800
4bff
7820
4840
48fe
4802
4802
c806
981c
ENDCHAR
STARTCHAR ch-241
ENCODING 241
SWIDTH 1000 0
DWIDTH 16 0
BBX 16 16 0 -2
BITMAP
0020
7a22
4b26
4924
4924
7820
4820
4bff
4888
7888
4888
4888
4888
4989
c909
9b07
ENDCHAR
STARTCHAR ch-244
ENCODING 244
SWIDTH 1000 0
DWIDTH 16 0
BBX 16 16 0 -2
BITMAP
0000
79fe
4902
4902
497a
7902
4902
497a
494a
794a
494a
497a
4902
4902
c902
9906
ENDCHAR
STARTCHAR ch-248
ENCODING 248
SWIDTH 1000 0
DWIDTH 16 0
BBX 16 16 0 -2
BITMAP
7880
4880
49ff
4901
7b01
4851
4955
4925
4925
7955
4955
4905
49fd
4803
c802
980e
ENDCHAR
STARTCHAR ch-252
ENCODING 252
SWIDTH 1000 0
DWIDTH 16 0
BBX 16 16 0 -2
BITMAP
0104
798c
4888
4800
4bfe
7888
4888
4888
4fff
7888
4888
4888
4888
4988
c908
9b08
ENDCHAR
STARTCHAR ch-253
ENCODING 253
SWIDTH 1000 0
DWIDTH 16 0
BBX 16 16 0 -2
BITMAP
1020
3226
223c
7f20
c121
0033
7f1e
4100
4100
7f20
4126
413c
7f20
4121
4133
431e
ENDCHAR
STARTCHAR ch-258
ENCODING 258
SWIDTH 1000 0
DWIDTH 16 0
BBX 16 16 0 -2
BITMAP
0080
7c8e
44f8
4480
4481
7cc3
447e
4400
4400
7cfe
4482
4482
44fe
4482
c482
8cfe
ENDCHAR
STARTCHAR ch-261
ENCODING 261
SWIDTH 1000 0
DWIDTH 16 0
BBX 16 16 0 -2
BITMAP
0080
3ffc
0304
3c38
1008
fe7f
2211
cc66
0000
3ffc
2004
3ffc
2004
3ffc
2004
201c
ENDCHAR
STARTCHAR ch-262
ENCODING 262
SWIDTH 1000 0
DWIDTH 16 0
BBX 16 16 0 -2
BITMAP
0040
787c
4888
4910
4bff
7900
4900
497c
4944
7944
4944
494c
4940
4941
ca63
983e
ENDCHAR
STARTCHAR ch-263
ENCODING 263
SWIDTH 1000 0
DWIDTH 16 0
BBX 16 16 0 -2
BITMAP
0040
7840
49fc
4844
4844
78c4
499c
4800
4908
7bdf
4949
4949
4949
4949
c949
9ad3
ENDCHAR
STARTCHAR ch-264
ENCODING 264
SWIDTH 1000 0
DWIDTH 16 0
BBX 16 16 0 -2
BITMAP
000c
7838
49e0
4906
493c
7920
4922
4926
492c
7930
4928
4928
492c
4924
c926
9a23
ENDCHAR
STARTCHAR ch-265
ENCODING 265
SWIDTH 1000 0
DWIDTH 16 0
BBX 16 16 0 -2
BITMAP
00c0
7870
4810
4800
49e0
7820
4822
4ba6
48b4
78a8
49a8
4924
4b26
4e23
c820
98e0
ENDCHAR
STARTCHAR ch-266
ENCODING 266
SWIDTH 1000 0
DWIDTH 16 0
BBX 16 16 0 -2
BITMAP
0100
0100
7a9e
0240
742e
0810
3ffc
d00b
1008
1ff8
1008
1008
1ff8
1008
1008
1038
ENDCHAR
STARTCHAR ch-282
ENCODING 282
SWIDTH 1000 0
DWIDTH 16 0
BBX 16 16 0 -2
BITMAP
0080
788f
4889
4be9
4889
7889
4889
4ff9
4909
7909
4b29
4a29
4ae9
4fab
c808
9808
ENDCHAR
STARTCHAR ch-283
ENCODING 283
SWIDTH 1000 0
DWIDTH 16 0
BBX 16 16 0 -2
BITMAP
0000
7bfe
4800
4924
4924
7a48
4a48
4924
4924
7800
4bfe
4820
4820
4820
cfff
9800
ENDCHAR
STARTCHAR ch-291
ENCODING 291
SWIDTH 1000 0
DWIDTH 16 0
BBX 16 16 0 -2
BITMAP
3ffe
2000
2ffc
2000
3ffe
6444
4738
dc0f
0000
1ffc
1004
1ffc
1004
1ffc
1004
101c
ENDCHAR
STARTCHAR ch-297
ENCODING 297
SWIDTH 1000 0
DWIDTH 16 0
BBX 16 16 0 -2
BITMAP
0880
0880
19ff
1308
30d8
2870
69dc
af07
29fc
2904
29fc
2904
29fc
2904
2104
211c
ENDCHAR
STARTCHAR ch-303
ENCODING 303
SWIDTH 1000 0
DWIDTH 16 0
BBX 16 16 0 -2
BITMAP
0024
7822
4bff
4820
4820
79fe
4922
4922
49fe
7922
4922
49fe
4922
4922
c922
9926
ENDCHAR
STARTCHAR ch-305
ENCODING 305
SWIDTH 1000 0
DWIDTH 16 0
BBX 16 16 0 -2
BITMAP
0084
7ccc
4448
45fe
4502
7d02
4502
4502
45fe
7c48
4448
4448
4448
44c9
c489
8d87
ENDCHAR
STARTCHAR ch-307
ENCODING 307
SWIDTH 1000 0
DWIDTH 16 0
BBX 16 16 0 -2
BITMAP
0041
7a63
4b22
4926
4904
7800
4905
494d
4969
7939
4911
4939
496d
4945
c901
99ff
ENDCHAR
STARTCHAR ch-313
ENCODING 313
SWIDTH 1000 0
DWIDTH 16 0
BBX 16 16 0 -2
BITMAP
0000
78fe
4880
48fc
4880
78fc
4880
4880
4bff
7892
4896
489c
4888
488c
c8e6
9b83
ENDCHAR
STARTCHAR ch-318
ENCODING 318
SWIDTH 1000 0
DWIDTH 16 0
BBX 16 16 0 -2
BITMAP
0020
7840
4bfe
4a22
4a22
7bfe
4a22
4a22
4bfe
7890
4910
4fff
4810
4810
c810
9810
ENDCHAR
STARTCHAR ch-326
ENCODING 326
SWIDTH 1000 0
DWIDTH 16 0
BBX 16 16 0 -2
BITMAP
0050
7850
4850
49fc
4954
7954
4954
49fc
4954
7954
4954
4fff
4800
4888
c98c
9b06
ENDCHAR
STARTCHAR ch-331
ENCODING 331
SWIDTH 1000 0
DWIDTH 16 0
BBX 16 16 0 -2
BITMAP
0020
7820
4fff
4890
4890
799e
4912
4b32
4d2a
7966
4914
491c
4908
491c
c936
9963
ENDCHAR
STARTCHAR ch-334
ENCODING 334
SWIDTH 1000 0
DWIDTH 16 0
BBX 16 16 0 -2
BITMAP
0000
7f7e
4822
7e36
4214
7e18
482c
7f47
0000
1ff8
1008
1ff8
1008
1ff8
1008
1038
ENDCHAR
STARTCHAR ch-336
ENCODING 336
SWIDTH 1000 0
DWIDTH 16 0
BBX 16 16 0 -2
BITMAP
0080
0080
7fff
4408
4dff
7888
4848
4818
4080
4ffc
4944
4a24
c884
8944
8a24
080c
ENDCHAR
STARTCHAR ch-337
ENCODING 337
SWIDTH 1000 0
DWIDTH 16 0
BBX 16 16 0 -2
BITMAP
0020
7820
4bff
4a00
4a44
7a44
4aff
4a84
4ba4
7ab4
4a94
4a84
4a84
4a84
cc84
989c
ENDCHAR
STARTCHAR ch-339
ENCODING 339
SWIDTH 1000 0
DWIDTH 16 0
BBX 16 16 0 -2
BITMAP
0048
7848
4848
4bcf
4848
7848
4848
4bcf
4848
7848
48c8
4b4f
4848
48c8
c888
9988
ENDCHAR
STARTCHAR ch-340
ENCODING 340
SWIDTH 1000 0
DWIDTH 16 0
BBX 16 16 0 -2
BITMAP
0020
7820
4bfe
4a92
4a92
7990
4b1e
4800
4800
79fe
4820
4820
4820
4820
cbff
9800
ENDCHAR
STARTCHAR ch-341
ENCODING 341
SWIDTH 1000 0
DWIDTH 16 0
BBX 16 16 0 -2
BITMAP
0020
7820
4bfe
4a02
4a02
7900
49de
4952
4b52
7a52
4952
48d6
4890
4891
c993
9b0e
ENDCHAR
STARTCHAR ch-351
ENCODING 351
SWIDTH 1000 0
DWIDTH 16 0
BBX 16 16 0 -2
BITMAP
0020
7820
4bff
4a01
4a01
79fe
4840
48c8
488c
79f6
4820
4820
49fe
4820
c820
9bff
ENDCHAR
STARTCHAR ch-357
ENCODING 357
SWIDTH 1000 0
DWIDTH 16 0
BBX 16 16 0 -2
BITMAP
0000
79fc
4904
49fc
4904
7904
49fc
4820
4920
7bfe
4e20
49fc
4820
4820
cfff
9800
ENDCHAR
STARTCHAR ch-358
ENCODING 358
SWIDTH 1000 0
DWIDTH 16 0
BBX 16 16 0 -2
BITMAP
0092
7924
4a48
4924
4892
7800
4840
4bfe
4a02
7a8a
4a52
4a22
4a52
4a8a
ca02
9bfe
ENDCHAR
STARTCHAR ch-363
ENCODING 363
SWIDTH 1000 0
DWIDTH 16 0
BBX 16 16 0 -2
BITMAP
000c
7838
49e0
4820
4bff
7820
49fe
4922
49fe
7922
49fe
4820
49fe
4820
c820
9bff
ENDCHAR
STARTCHAR ch-366
ENCODING 366
SWIDTH 1000 0
DWIDTH 16 0
BBX 16 16 0 -2
BITMAP
0000
79fe
4922
4922
49fe
7922
4922
4922
49fe
7800
4810
4858
494a
4943
cb45
9a3c
ENDCHAR
STARTCHAR ch-368
ENCODING 368
SWIDTH 1000 0
DWIDTH 16 0
BBX 16 16 0 -2
BITMAP
0000
7bff
4848
4bff
4a49
7a49
4bff
4840
4840
7bff
4884
488c
49e8
4838
c8ee
9b83
ENDCHAR
STARTCHAR ch-369
ENCODING 369
SWIDTH 1000 0
DWIDTH 16 0
BBX 16 16 0 -2
BITMAP
0010
777e
5112
5212
54ff
7712
5112
517e
5510
757e
5710
52ff
5210
5210
d500
b4ff
ENDCHAR
STARTCHAR ch-372
ENCODING 372
SWIDTH 1000 0
DWIDTH 16 0
BBX 16 16 0 -2
BITMAP
0020
7820
4bfe
4a22
4a22
7bfe
4a22
4a22
4bfe
7850
4850
4858
48c8
488c
c986
9b03
ENDCHAR
STARTCHAR ch-376
ENCODING 376
SWIDTH 1000 0
DWIDTH 16 0
BBX 16 16 0 -2
BITMAP
0000
78fc
4884
48fc
4884
7884
48fc
4800
4bff
7880
49ff
4a49
4899
4b33
c862
998e
ENDCHAR
STARTCHAR ch-377
ENCODING 377
SWIDTH 1000 0
DWIDTH 16 0
BBX 16 16 0 -2
BITMAP
0080
7880
49ff
4b00
48fc
7884
48fc
4884
48fc
7840
48fc
4984
4b6c
4838
c86c
99c7
ENDCHAR
STARTCHAR ch-378
ENCODING 378
SWIDTH 1000 0
DWIDTH 16 0
BBX 16 16 0 -2
BITMAP
0010
7820
49fc
4904
49fc
7904
4904
49fc
4822
7ba6
48b4
48a8
49ac
4926
cb23
9860
ENDCHAR
STARTCHAR ch-383
ENCODING 383
SWIDTH 1000 0
DWIDTH 16 0
BBX 16 16 0 -2
BITMAP
0000
7a3e
4b22
4922
483e
7822
4822
4f3e
4929
792a
492c
4924
4936
4963
ca80
9a7f
ENDCHAR
STARTCHAR ch-384
ENCODING 384
SWIDTH 1000 0
DWIDTH 16 0
BBX 16 16 0 -2
BITMAP
0020
7820
4bff
4884
4848
7bff
4a01
4a21
4820
7bff
4840
487e
4842
48c2
c982
9b0e
ENDCHAR
STARTCHAR ch-386
ENCODING 386
SWIDTH 1000 0
DWIDTH 16 0
BBX 16 16 0 -2
BITMAP
1040
feff
2180
3c7e
2449
644a
446c
dcc6
0003
1ff8
1008
1ff8
1008
1ff8
1008
1038
ENDCHAR
STARTCHAR ch-387
ENCODING 387
SWIDTH 1000 0
DWIDTH 16 0
BBX 16 16 0 -2
BITMAP
0000
79fc
4904
4904
49fc
7904
4904
49fc
4800
7bfe
4a92
4a92
4a92
4a92
cfff
9800
ENDCHAR
STARTCHAR ch-392
ENCODING 392
SWIDTH 1000 0
DWIDTH 16 0
BBX 16 16 0 -2
BITMAP
0000
7fff
4800
49fc
4904
79fc
4800
4bfe
4a52
7a92
4b1e
4a02
4afa
4a22
ca22
9a26
ENDCHAR
STARTCHAR ch-394
ENCODING 394
SWIDTH 1000 0
DWIDTH 16 0
BBX 16 16 0 -2
BITMAP
0024
7822
4fff
4820
4bfe
7a22
4bfe
4a22
4bfe
7804
4fff
4904
4984
4884
c804
981c
ENDCHAR
STARTCHAR ch-399
ENCODING 399
SWIDTH 1000 0
DWIDTH 16 0
BBX 16 16 0 -2
BITMAP
0100
ffff
1008
1ff8
0000
ffff
9009
9ff9
0000
3ffc
2004
3ffc
2004
3ffc
2004
201c
ENDCHAR
STARTCHAR ch-403
ENCODING 403
SWIDTH 1000 0
DWIDTH 16 0
BBX 16 16 0 -2
BITMAP
0100
7bfe
4e00
49fc
4904
79fc
4904
49fc
4800
7fff
4900
4bfe
4e4a
4892
c922
984e
ENDCHAR
STARTCHAR ch-405
ENCODING 405
SWIDTH 1000 0
DWIDTH 16 0
BBX 16 16 0 -2
BITMAP
0000
77ff
5429
5425
57ff
7421
55d1
5555
5555
75dd
5409
55db
5437
54e5
d401
b7ff
ENDCHAR
STARTCHAR ch-410
ENCODING 410
SWIDTH 1000 0
DWIDTH 16 0
BBX 16 16 0 -2
BITMAP
0100
01fc
0100
7fff
4101
5ffc
4101
5fff
5082
5ffe
5082
5ffe
c804
8ffc
8804
080c
ENDCHAR
STARTCHAR ch-412
ENCODING 412
SWIDTH 1000 0
DWIDTH 16 0
BBX 16 16 0 -2
BITMAP
0048
7848
4bff
4848
4848
79fe
4902
49fe
4902
79fe
4820
4bff
4848
48cc
c986
9b03
ENDCHAR
STARTCHAR ch-413
ENCODING 413
SWIDTH 1000 0
DWIDTH 16 0
BBX 16 16 0 -2
BITMAP
0020
7820
4bff
48a8
49ac
7b27
4870
48dc
4b87
7820
4924
48a8
4870
49ac
cb27
9860
ENDCHAR
STARTCHAR ch-416
ENCODING 416
SWIDTH 1000 0
DWIDTH 16 0
BBX 16 16 0 -2
BITMAP
0000
7bde
4842
494a
48c6
794a
4822
4870
49dc
7f07
4820
49c8
4832
49c4
c818
99e0
ENDCHAR
STARTCHAR ch-419
ENCODING 419
SWIDTH 1000 0
DWIDTH 16 0
BBX 16 16 0 -2
BITMAP
0020
7820
4bfe
4a92
4a92
791f
4a00
49fe
4844
7886
49fa
4820
49fe
4820
c820
9bff
ENDCHAR
STARTCHAR ch-420
ENCODING 420
SWIDTH 1000 0
DWIDTH 16 0
BBX 16 16 0 -2
BITMAP
0000
79fe
4820
4bff
4a21
7bad
4a21
49ac
4800
79fe
4802
4802
49fe
4802
c802
99fe
ENDCHAR
STARTCHAR ch-424
ENCODING 424
SWIDTH 1000 0
DWIDTH 16 0
BBX 16 16 0 -2
BITMAP
0082
7886
4be4
488c
4be9
7803
4be2
4a26
4bec
7800
4a21
4b63
4942
48e6
cb8c
9818
ENDCHAR
STARTCHAR ch-425
ENCODING 425
SWIDTH 1000 0
DWIDTH 16 0
BBX 16 16 0 -2
BITMAP
000a
7809
4ffe
4808
49e8
7808
4bf8
4808
49e8
7928
49ec
4924
49e4
4925
c9e7
9b32
ENDCHAR
STARTCHAR ch-432
ENCODING 432
SWIDTH 1000 0
DWIDTH 16 0
BBX 16 16 0 -2
BITMAP
001c
79f0
4a22
4924
4fff
78a8
49ac
4b26
4e23
7800
4bfe
4a22
4bfe
4a22
ca22
9bfe
ENDCHAR
STARTCHAR ch-435
ENCODING 435
SWIDTH 1000 0
DWIDTH 16 0
BBX 16 16 0 -2
BITMAP
0102
7884
4bff
4820
49fe
7820
4bff
4922
48a4
7bff
4800
49fe
4902
4902
c902
99fe
ENDCHAR
STARTCHAR ch-437
ENCODING 437
SWIDTH 1000 0
DWIDTH 16 0
BBX 16 16 0 -2
BITMAP
0088
7888
4fff
4888
4820
7bfe
4800
4924
4924
7bae
4aaa
4820
4fff
4820
c820
9820
ENDCHAR
STARTCHAR ch-440
ENCODING 440
SWIDTH 1000 0
DWIDTH 16 0
BBX 16 16 0 -2
BITMAP
0010
7aff
4b20
497e
48c8
783f
4800
4f3e
4922
793e
4922
493e
4922
4926
ca80
9a7f
ENDCHAR
STARTCHAR ch-442
ENCODING 442
SWIDTH 1000 0
DWIDTH 16 0
BBX 16 16 0 -2
BITMAP
0080
7fff
4488
49fe
5b10
69fe
4910
49ff
4000
4ffc
4804
4ffc
c804
8ffc
8804
081c
ENDCHAR
STARTCHAR ch-445
ENCODING 445
SWIDTH 1000 0
DWIDTH 16 0
BBX 16 16 0 -2
BITMAP
00f8
7910
4fff
4a44
4b87
7a7c
4a00
4bff
4a00
7a7c
4a00
4a7c
4a00
4afe
cc82
98fe
ENDCHAR
STARTCHAR ch-446
ENCODING 446
SWIDTH 1000 0
DWIDTH 16 0
BBX 16 16 0 -2
BITMAP
0020
7850
498c
4f77
4800
7bfe
4a22
4aaa
4a22
7bfe
4800
49fc
4904
49fc
c904
99fc
ENDCHAR
STARTCHAR ch-447
ENCODING 447
SWIDTH 1000 0
DWIDTH 16 0
BBX 16 16 0 -2
BITMAP
0050
79fe
4952
49fe
4952
79fe
4800
4bff
4a00
7afe
4a00
4bff
4a92
4a9a
ccec
9987
ENDCHAR
STARTCHAR ch-448
ENCODING 448
SWIDTH 1000 0
DWIDTH 16 0
BBX 16 16 0 -2
BITMAP
7f3c
4124
7f47
5200
7f7e
5222
ff9c
9263
2100
1ff8
1008
1ff8
1008
1ff8
1008
1038
ENDCHAR
STARTCHAR ch-450
ENCODING 450
SWIDTH 1000 0
DWIDTH 16 0
BBX 16 16 0 -2
BITMAP
0010
3efe
2244
3e28
21ff
7e10
52fe
de10
0000
1ff8
1008
1ff8
1008
1ff8
1008
1038
ENDCHAR
STARTCHAR ch-454
ENCODING 454
SWIDTH 1000 0
DWIDTH 16 0
BBX 16 16 0 -2
BITMAP
0020
7820
4bfe
4904
4888
7fff
4800
49fc
4904
79fc
4904
49fc
4820
4952
c945
9a3c
ENDCHAR
STARTCHAR ch-456
ENCODING 456
SWIDTH 1000 0
DWIDTH 16 0
BBX 16 16 0 -2
BITMAP
0088
7bff
4888
49fc
4904
79fc
4904
49fc
4880
79ff
4b01
4d61
49c1
4913
c8f2
980e
ENDCHAR
STARTCHAR ch-457
ENCODING 457
SWIDTH 1000 0
DWIDTH 16 0
BBX 16 16 0 -2
BITMAP
0020
7870
48d8
498c
4f07
78f8
4800
4bde
4a52
7a52
4bde
4800
4884
4884
c9ce
9b5b
ENDCHAR
STARTCHAR ch-461
ENCODING 461
SWIDTH 1000 0
DWIDTH 16 0
BBX 16 16 0 -2
BITMAP
0020
7820
4fff
4850
4faf
7aaa
4aaa
4dad
4800
7902
49fe
4902
49fe
4902
c902
9a02
ENDCHAR
STARTCHAR ch-465
ENCODING 465
SWIDTH 1000 0
DWIDTH 16 0
BBX 16 16 0 -2
BITMAP
0000
7bfe
4820
4bfe
4a22
7bba
4a22
4998
4800
7bff
4840
4bfe
4a92
4a92
ca92
9a96
ENDCHAR
STARTCHAR ch-467
ENCODING 467
SWIDTH 1000 0
DWIDTH 16 0
BBX 16 16 0 -2
BITMAP
7088
57ff
508a
5089
7004
57ff
5404
55f4
7545
55f7
5516
55f4
554c
55fd
d817
b062
ENDCHAR
STARTCHAR ch-472
ENCODING 472
SWIDTH 1000 0
DWIDTH 16 0
BBX 16 16 0 -2
BITMAP
0222
7444
5222
57fc
54a4
7444
54a4
57fc
5000
7664
5554
5664
5554
5445
d775
b4c3
ENDCHAR
STARTCHAR ch-473
ENCODING 473
SWIDTH 1000 0
DWIDTH 16 0
BBX 16 16 0 -2
BITMAP
0088
7888
4fff
4888
48f8
7904
4f75
4956
4954
7954
4b75
4d03
4800
4952
cb5b
9a49
ENDCHAR
STARTCHAR ch-474
ENCODING 474
SWIDTH 1000 0
DWIDTH 16 0
BBX 16 16 0 -2
BITMAP
0020
783c
4820
4bff
4a21
7afc
4a21
4aff
4a92
7afe
4a92
4afe
4a00
4dfe
c952
9bff
ENDCHAR
STARTCHAR ch-479
ENCODING 479
SWIDTH 1000 0
DWIDTH 16 0
BBX 16 16 0 -2
BITMAP
7088
57ff
508a
5081
7008
53ff
5a08
57e8
7289
53eb
522a
57ee
5a84
53ed
d217
b462
ENDCHAR
STARTCHAR ch-480
ENCODING 480
SWIDTH 1000 0
DWIDTH 16 0
BBX 16 16 0 -2
BITMAP
2104
47e8
d01a
23c4
4809
fbdf
2244
abd5
a815
0100
3ffc
2244
2d34
2284
2c74
200c
ENDCHAR
STARTCHAR ch-483
ENCODING 483
SWIDTH 1000 0
DWIDTH 16 0
BBX 16 16 0 -2
BITMAP
0000
3ffe
2080
2080
2080
3ffc
2004
2004
2004
3ffc
2080
2080
2080
2080
3ffe
0000
ENDCHAR
STARTCHAR ch-485
ENCODING 485
SWIDTH 1000 0
DWIDTH 16 0
BBX 16 16 0 -2
BITMAP
0010
7f10
4810
4810
4810
7f10
4110
4138
4128
7f28
4828
486c
4844
4844
7fc6
0083
ENDCHAR
STARTCHAR ch-487
ENCODING 487
SWIDTH 1000 0
DWIDTH 16 0
BBX 16 16 0 -2
BITMAP
0028
002c
0024
9fff
d020
57e0
1532
17d2
1456
7454
d7dc
1508
37dc
2035
6067
c1c2
ENDCHAR
STARTCHAR ch-488
ENCODING 488
SWIDTH 1000 0
DWIDTH 16 0
BBX 16 16 0 -2
BITMAP
0040
fc40
90ff
9180
907c
fc44
8444
8444
fc7c
9000
91ef
9129
9129
fd29
0129
01ef
ENDCHAR
STARTCHAR ch-490
ENCODING 490
SWIDTH 1000 0
DWIDTH 16 0
BBX 16 16 0 -2
BITMAP
0100
0300
0200
3ffc
2004
2004
2004
3ffc
2004
2004
2004
3ffc
2004
2004
2004
3ffc
ENDCHAR
STARTCHAR ch-493
ENCODING 493
SWIDTH 1000 0
DWIDTH 16 0
BBX 16 16 0 -2
BITMAP
0080
0100
3ffc
2004
3ffc
2004
3ffc
2004
3ffc
0100
0100
ffff
0240
0660
1c38
f00f
ENDCHAR
STARTCHAR ch-499
ENCODING 499
SWIDTH 1000 0
DWIDTH 16 0
BBX 16 16 0 -2
BITMAP
0000
7ffe
0400
0410
0c10
09f8
3f0c
0000
0100
0100
3ffc
0100
0100
0100
ffff
0000
ENDCHAR
STARTCHAR ch-500
ENCODING 500
SWIDTH 1000 0
DWIDTH 16 0
BBX 16 16 0 -2
BITMAP
0020
fe20
2020
203f
6464
4444
5ec4
f22c
1028
1038
fe10
1038
1028
1e6c
70c6
c183
ENDCHAR
STARTCHAR ch-506
ENCODING 506
SWIDTH 1000 0
DWIDTH 16 0
BBX 16 16 0 -2
BITMAP
0100
7ffe
0100
3ffc
0000
0ff0
0810
7ffe
4002
5ffa
0810
1fe8
0100
3ffc
0100
ffff
ENDCHAR
STARTCHAR ch-507
ENCODING 507
SWIDTH 1000 0
DWIDTH 16 0
BBX 16 16 0 -2
BITMAP
0010
fe10
21ff
6810
48fe
7c28
c5ff
1044
109a
7d71
1010
11ff
1c54
70d6
c193
0010
ENDCHAR
STARTCHAR ch-508
ENCODING 508
SWIDTH 1000 0
DWIDTH 16 0
BBX 16 16 0 -2
BITMAP
0300
0e00
387c
2004
2004
2004
2004
2004
3e7c
2004
2004
2004
2004
2004
3ffc
0000
ENDCHAR
STARTCHAR ch-510
ENCODING 510
SWIDTH 1000 0
DWIDTH 16 0
BBX 16 16 0 -2
BITMAP
0100
0d00
793e
4102
4102
793e
4102
4102
4102
793e
0380
02c0
0660
0c30
381c
e007
ENDCHAR
ENDFONT
